PathFileType	4	(X/Y/Z)	C:\InverseKin\data\OA1\Walking\OA1_80_1.trc
DataRate	CameraRate	NumFrames	NumMarkers	Units	OrigDataRate	OrigDataStartFrame	OrigNumFrames
100.00	100.00	       4	42	mm	100.00	255	       291
Frame#	Time	R.Shoulder			R.Clavicle			R.Bicep			R.Elbow			R.Forearm			R.Wrist			L.Shoulder			L.Clavicle			L.Scapula			L.Bicep			L.Elbow			L.Forearm			L.Wrist			R.ASIS			R.Iliac			R.PSIS			S2			L.PSIS			L.Iliac			L.ASIS			R.TH1			R.TH2			R.TH3			R.Knee			R.SH1			R.SH2			R.SH3			R.SH4			R.Ankle			R.Heel			R.MT5			L.TH1			L.TH2			L.TH3			L.TH4			L.Knee			L.SH1			L.SH2			L.SH3			L.Ankle			L.Heel			L.MT5			
		X1	Y1	Z1	X2	Y2	Z2	X3	Y3	Z3	X4	Y4	Z4	X5	Y5	Z5	X6	Y6	Z6	X7	Y7	Z7	X8	Y8	Z8	X9	Y9	Z9	X10	Y10	Z10	X11	Y11	Z11	X12	Y12	Z12	X13	Y13	Z13	X14	Y14	Z14	X15	Y15	Z15	X16	Y16	Z16	X17	Y17	Z17	X18	Y18	Z18	X19	Y19	Z19	X20	Y20	Z20	X21	Y21	Z21	X22	Y22	Z22	X23	Y23	Z23	X24	Y24	Z24	X25	Y25	Z25	X26	Y26	Z26	X27	Y27	Z27	X28	Y28	Z28	X29	Y29	Z29	X30	Y30	Z30	X31	Y31	Z31	X32	Y32	Z32	X33	Y33	Z33	X34	Y34	Z34	X35	Y35	Z35	X36	Y36	Z36	X37	Y37	Z37	X38	Y38	Z38	X39	Y39	Z39	X40	Y40	Z40	X41	Y41	Z41	X42	Y42	Z42	

255	2.540	1152.18970	27.54032	1366.90918	1170.63989	191.94380	1318.89734	1228.97156	26.71372	1260.32471	1277.34119	-65.73398	1092.64856	1389.29688	-13.06822	1089.41309	1500.62109	-19.79556	1028.67700	1079.55872	406.63986	1347.37524	1168.59338	247.69005	1321.45642	955.18085	295.69937	1283.52954	1032.60608	412.59265	1107.69946	927.70453	433.59207	1069.87305	966.53571	425.93237	910.42926	918.78259	460.43716	830.57111	1204.32654	64.40185	965.46698	1074.26196	25.76474	1043.92834	961.88678	124.50486	996.11078	953.85449	182.74736	976.75165	967.57104	239.00850	993.71869	1076.14075	359.25336	1022.97711	1200.61768	314.31223	958.95160	1154.02051	67.41803	689.10461	1137.14148	82.51493	614.53851	1006.35040	19.14068	632.63959	993.04395	49.71197	480.50272	976.82275	129.81879	310.34927	937.43317	134.77878	249.66302	912.58893	44.23962	345.78729	869.05273	52.20099	288.19046	791.40808	95.89243	120.20077	700.56042	158.39973	79.13757	874.73108	69.13234	37.01778	1252.11780	312.42252	773.03168	1279.53821	298.12592	697.51593	1125.77417	368.57755	720.31781	1151.58032	351.31165	640.84210	1254.94360	325.55325	489.41055	1346.45032	303.75055	366.18475	1368.46704	292.92056	293.99622	1266.19519	318.35913	255.51564	1371.23987	300.84836	98.98757	1315.90942	255.77339	33.40234	1494.54553	325.30917	63.87281	
256	2.550	1163.24512	28.53039	1366.34387	1182.51184	193.01782	1318.79321	1240.57385	28.23170	1259.41333	1288.08557	-64.27428	1091.84985	1399.92114	-11.74602	1088.34021	1510.50403	-18.66847	1027.95557	1090.98938	406.78094	1346.11011	1179.85791	248.91258	1321.26404	967.15155	296.78271	1282.33643	1043.87463	413.44730	1107.01587	938.93591	433.97247	1068.84387	976.90411	426.55103	909.50323	929.20697	461.44336	829.42743	1218.00903	65.47014	966.31836	1086.69434	26.35288	1042.61621	974.81317	126.23188	996.16113	968.41663	184.10007	976.22131	981.40637	240.67668	993.37921	1088.95544	360.00784	1023.75958	1213.51025	315.18463	958.89850	1166.20032	67.41583	688.11743	1149.25659	82.81107	612.69183	1018.02271	20.67411	632.02765	1004.59015	50.09366	479.84122	985.32379	129.54871	309.91748	944.93890	133.87799	250.17128	922.32660	43.34033	347.30243	876.32062	51.22729	290.60181	794.69092	95.07220	123.66357	703.16022	157.65482	85.86099	876.21686	68.08350	37.58525	1265.74780	312.37399	772.19275	1292.46680	298.10440	696.94409	1139.45728	369.28314	720.27130	1164.16150	351.44415	640.22522	1263.77588	326.29492	488.92084	1357.01221	303.00159	365.28751	1378.46973	291.31378	292.82333	1276.21509	318.66629	254.75874	1377.02405	300.38235	97.53626	1318.47278	255.22540	34.69034	1498.90491	323.20383	58.05847	
257	2.560	1174.57996	29.15711	1366.38464	1193.91357	194.04868	1318.73218	1251.32654	29.59343	1258.38708	1298.33752	-63.56254	1091.03821	1409.98572	-10.91560	1087.26733	1520.16541	-18.14290	1026.00354	1101.21375	408.96524	1345.59766	1191.13940	249.72597	1321.34119	978.65778	297.19446	1281.40857	1055.42139	414.48340	1106.09351	949.78925	434.11444	1068.21521	988.13647	427.85098	908.97449	940.13983	461.68604	828.69238	1228.70325	66.22884	963.12427	1100.14575	28.41403	1042.03723	983.39563	126.78300	994.42035	976.29169	185.28419	975.43408	991.67242	241.98112	993.26147	1101.99316	361.77414	1024.12146	1226.47803	315.90106	959.44653	1179.31091	67.90466	686.46344	1162.04553	82.76401	612.16064	1031.61377	21.68659	630.99072	1018.03839	50.56097	479.22946	994.13580	128.14902	308.97354	951.97424	133.34996	250.26382	932.18750	42.95431	349.13068	884.86615	50.72106	293.70081	798.74207	94.07818	128.18063	706.31824	157.09193	93.96412	876.71100	67.74217	37.94149	1278.54834	312.22943	771.61737	1304.77637	298.25418	695.49603	1152.27734	370.18573	720.82587	1175.95691	352.37308	640.74963	1272.82983	327.10461	488.75714	1367.28540	302.47076	364.08945	1387.60547	290.52206	291.35568	1284.98206	319.45276	255.00983	1382.15198	299.56964	96.82410	1320.91577	255.95561	36.83861	1501.68262	322.39090	52.45646	
258	2.570	1186.50012	30.51795	1366.78833	1205.27649	195.40398	1319.15613	1262.36633	30.40288	1257.67053	1307.74072	-62.44393	1090.18628	1419.79468	-10.28950	1085.63965	1529.72888	-17.05457	1024.33411	1113.08179	409.88055	1345.41895	1202.99500	250.87611	1321.65906	989.93988	298.39032	1281.38916	1067.76892	415.27185	1106.18970	961.65179	435.10501	1067.72314	1000.14093	428.34943	907.84943	952.53918	462.41525	828.72827	1241.83630	67.26666	962.81940	1111.99060	28.96165	1041.23999	997.15845	127.65314	993.54535	989.69165	186.62737	974.93024	1004.66876	242.86227	993.24567	1114.92395	362.55838	1025.66003	1239.41638	316.80081	960.69891	1192.18250	68.42298	686.21588	1176.59851	82.51632	610.76672	1044.97986	22.89739	629.97693	1032.03003	50.60505	478.76065	1004.01251	127.61713	308.27728	960.49158	131.89832	250.86082	942.58063	42.56472	350.36502	893.95837	50.45931	296.42630	803.57489	92.98287	133.34637	710.87317	155.67493	102.40021	877.25848	67.95088	38.14711	1291.42798	313.13950	771.55591	1317.19019	299.62106	695.35107	1165.12244	371.44183	722.17566	1187.89185	353.09076	641.80634	1283.29138	327.52237	489.25653	1378.59924	301.14233	363.32715	1397.19360	288.99377	290.01041	1294.15002	321.35168	255.73605	1386.31396	299.99448	96.15752	1322.63416	255.81371	39.15302	1503.81677	321.47675	47.49723	
